<?xml version="1.0" standalone="no"?>
<!DOCTYPE svg PUBLIC "-//W3C//DTD SVG 20010904//EN"
 "http://www.w3.org/TR/2001/REC-SVG-20010904/DTD/svg10.dtd">
<svg version="1.0" xmlns="http://www.w3.org/2000/svg"
 width="500.000000pt" height="500.000000pt" viewBox="0 0 500.000000 500.000000"
 preserveAspectRatio="xMidYMid meet">

<g transform="translate(0.000000,500.000000) scale(0.100000,-0.100000)"
fill="#000000" stroke="none">
<path d="M816 3137 c-23 -17 -24 -62 -2 -86 12 -13 16 -38 16 -99 l0 -82 -34
0 -33 0 -7 61 c-3 34 -15 76 -25 93 -35 55 -108 84 -170 66 -36 -10 -101 -65
-101 -85 0 -7 -21 -11 -54 -11 -61 1 -95 -18 -134 -75 -20 -29 -23 -43 -19
-91 5 -52 3 -57 -18 -62 -12 -3 -37 -22 -53 -41 -55 -61 -55 -149 -1 -206 26
-28 28 -35 16 -44 -50 -36 -71 -128 -42 -184 17 -33 70 -81 90 -81 10 0 12
-13 8 -54 -5 -44 -1 -61 18 -95 30 -54 93 -86 150 -77 30 5 39 3 39 -8 0 -23
76 -84 114 -91 83 -16 161 43 181 138 4 22 11 27 35 27 28 0 30 -2 30 -41 0
-26 -7 -50 -20 -66 -25 -32 -25 -55 -1 -77 27 -25 72 -17 90 15 13 24 13 29
-5 55 -11 17 -21 53 -24 89 l-5 60 -47 3 c-46 3 -48 5 -48 33 0 29 0 29 58 29
56 0 59 -1 107 -50 38 -39 49 -57 47 -76 -8 -59 72 -88 105 -38 15 24 15 29 2
53 -9 16 -25 27 -41 29 -14 2 -34 12 -44 23 -17 18 -16 20 6 44 21 22 32 25
95 25 59 0 75 -4 90 -20 22 -24 43 -25 73 -4 32 22 30 69 -4 91 -25 16 -28 16
-56 0 -21 -12 -52 -17 -104 -17 -70 0 -76 -2 -112 -35 l-39 -35 -23 25 c-21
22 -32 25 -92 25 l-68 0 0 100 0 100 49 0 c49 0 50 -1 53 -32 l3 -33 70 -3
c46 -2 75 -8 87 -19 21 -19 62 -20 83 -3 21 17 19 63 -3 83 -25 23 -55 21 -77
-3 -15 -17 -29 -20 -69 -18 -49 3 -51 4 -54 36 l-3 32 -70 0 c-67 0 -69 1 -69
25 0 24 2 25 73 25 68 0 75 -2 102 -30 l29 -30 157 0 c127 0 159 3 169 15 7 8
23 15 36 15 53 0 75 76 30 105 -17 11 -30 13 -48 6 -28 -11 -38 -29 -38 -72
l0 -29 -146 0 -147 0 -38 35 c-37 33 -43 35 -109 35 -63 0 -70 2 -70 20 0 18
7 20 80 20 66 0 86 -4 109 -21 34 -25 64 -19 87 17 15 22 15 26 0 48 -23 36
-53 42 -87 17 -23 -17 -43 -21 -109 -21 l-80 0 0 50 0 50 65 0 65 0 26 41 26
42 58 -58 58 -58 60 57 c34 32 68 56 80 56 28 0 62 34 62 60 0 24 -34 60 -55
60 -25 0 -67 -48 -61 -68 4 -12 -8 -32 -39 -62 l-45 -44 -47 47 -48 47 25 45
c14 25 32 45 41 45 40 0 66 74 34 100 -20 16 -61 16 -81 -1 -11 -9 -14 -24
-11 -48 3 -30 -5 -52 -50 -128 l-54 -93 -55 0 -54 0 0 39 0 40 53 3 52 3 3
100 c2 83 6 102 22 118 54 49 -15 127 -74 84z m52 -45 c2 -7 -3 -12 -12 -12
-9 0 -16 7 -16 16 0 17 22 14 28 -4z m-180 -77 c22 -26 22 -31 22 -284 l0
-258 -44 -5 c-63 -7 -132 -44 -155 -82 -27 -44 -32 -99 -9 -104 12 -2 19 5 23
25 15 72 56 108 138 119 l47 7 0 -220 c0 -207 -1 -222 -21 -246 -53 -68 -155
-52 -191 30 -21 47 -22 48 -66 32 -91 -32 -176 76 -127 161 21 37 18 50 -10
50 -60 0 -115 55 -115 115 0 58 55 115 110 115 13 0 20 7 20 20 0 13 -7 20
-20 20 -56 0 -110 57 -110 115 0 38 29 82 65 99 23 11 43 12 85 5 64 -10 101
-34 115 -76 10 -31 18 -37 37 -31 9 3 9 14 0 46 -15 48 -60 83 -129 102 -45
11 -63 33 -63 75 0 41 26 81 66 100 31 14 43 15 74 6 51 -15 48 -16 66 28 24
61 75 86 139 69 17 -4 40 -19 53 -33z m352 -41 c0 -17 -22 -14 -28 4 -2 7 3
12 12 12 9 0 16 -7 16 -16z m175 -134 c-5 -8 -11 -8 -17 -2 -6 6 -7 16 -3 22
5 8 11 8 17 2 6 -6 7 -16 3 -22z m-215 -250 c0 -21 -15 -27 -25 -10 -7 12 2
30 16 30 5 0 9 -9 9 -20z m340 -86 c0 -9 -5 -14 -12 -12 -18 6 -21 28 -4 28 9
0 16 -7 16 -16z m-260 -159 c0 -8 -7 -15 -15 -15 -16 0 -20 12 -8 23 11 12 23
8 23 -8z m152 -177 c-15 -15 -26 -4 -18 18 5 13 9 15 18 6 9 -9 9 -15 0 -24z
m-192 -153 c0 -8 -7 -15 -15 -15 -16 0 -20 12 -8 23 11 12 23 8 23 -8z m-185
-105 c3 -6 -1 -13 -10 -16 -19 -8 -30 0 -20 15 8 14 22 14 30 1z"/>
<path d="M1476 2974 c-36 -35 -12 -61 59 -66 l50 -3 3 -346 c3 -380 3 -385 57
-361 l25 12 0 349 0 350 58 3 c51 3 57 5 60 26 7 47 -10 52 -159 52 -112 0
-141 -3 -153 -16z"/>
<path d="M1972 2970 c-22 -21 -22 -23 -22 -378 0 -293 3 -362 14 -377 12 -16
29 -20 95 -23 98 -5 127 1 134 29 10 38 -25 59 -98 59 l-65 0 0 140 0 140 39
0 c91 0 97 77 7 87 l-47 6 3 126 3 126 70 3 c74 3 100 18 88 50 -11 28 -24 32
-114 32 -72 0 -89 -3 -107 -20z"/>
<path d="M2862 2978 c-9 -9 -12 -109 -12 -390 l0 -378 25 -12 c19 -8 28 -8 40
2 12 10 15 42 15 181 l0 169 100 0 100 0 2 -171 c3 -151 5 -173 21 -183 12 -8
22 -8 35 0 16 10 17 40 17 394 0 354 -1 384 -17 394 -13 8 -23 8 -35 0 -16
-10 -18 -32 -21 -183 l-2 -171 -100 0 -100 0 0 168 c0 172 -4 192 -40 192 -9
0 -21 -5 -28 -12z"/>
<path d="M3398 2975 c-38 -21 -40 -48 -36 -422 4 -382 -5 -356 121 -361 74 -3
87 -1 137 25 42 21 60 38 77 72 22 43 23 53 23 297 0 154 -4 264 -11 281 -13
35 -55 80 -93 100 -43 23 -184 28 -218 8z m192 -88 c48 -37 50 -49 50 -294 0
-154 -4 -241 -12 -257 -17 -38 -54 -57 -119 -63 l-59 -6 0 317 0 316 63 0 c34
0 69 -6 77 -13z"/>
<path d="M3887 2983 c-4 -3 -7 -178 -7 -388 0 -382 2 -405 35 -405 38 1 40 12
45 272 l5 253 103 -257 c104 -259 116 -278 156 -262 14 6 16 44 16 395 l0 389
-26 6 c-15 4 -30 2 -37 -5 -8 -8 -14 -90 -17 -263 l-5 -251 -99 247 c-54 136
-105 253 -113 261 -15 16 -45 20 -56 8z"/>
<path d="M4592 2978 c-11 -14 -182 -728 -182 -760 0 -24 25 -33 53 -21 17 8
27 31 47 104 l25 94 85 0 85 0 13 -55 c27 -114 33 -130 53 -140 23 -13 59 -4
59 13 1 25 -173 753 -183 765 -5 6 -17 12 -27 12 -10 0 -22 -6 -28 -12z m63
-363 c15 -69 26 -128 23 -131 -3 -3 -32 -4 -65 -2 l-59 3 30 128 c16 70 32
127 36 127 4 0 19 -56 35 -125z"/>
<path d="M2433 2955 c-27 -16 -49 -40 -62 -68 -20 -41 -21 -60 -21 -303 0
-291 2 -300 75 -359 32 -26 45 -30 93 -29 33 0 70 7 89 17 44 24 84 79 90 127
l6 40 -42 0 c-34 0 -41 -3 -41 -20 0 -11 -13 -34 -29 -52 -35 -40 -89 -43
-127 -7 l-24 22 0 264 0 264 26 24 c38 35 87 34 125 -4 16 -16 29 -39 29 -50
0 -18 6 -21 40 -21 37 0 40 2 40 28 0 15 -10 45 -23 67 -47 82 -160 110 -244
60z"/>
<path d="M1136 2674 c-36 -35 -9 -94 43 -94 36 0 51 17 51 57 0 49 -59 72 -94
37z m54 -39 c0 -8 -7 -15 -15 -15 -8 0 -15 7 -15 15 0 8 7 15 15 15 8 0 15 -7
15 -15z"/>
<path d="M1193 2354 c-15 -24 -15 -29 -2 -53 11 -20 22 -26 49 -26 27 0 38 6
49 26 13 24 13 29 -2 53 -12 18 -26 26 -47 26 -21 0 -35 -8 -47 -26z m62 -23
c7 -12 -12 -24 -25 -16 -11 7 -4 25 10 25 5 0 11 -4 15 -9z"/>
</g>
</svg>
